Coordinates
version=1
nRows=24
nColumns=22
inDegrees=yes

Units are S.I. units (second, meters, Newtons, ...)
If the header above contains a line with 'inDegrees', this indicates whether rotational values are in degrees (yes) or radians (no).

endheader
time	pelvis_tilt	pelvis_list	pelvis_rotation	pelvis_tx	pelvis_ty	pelvis_tz	hip_flexion_r	hip_adduction_r	hip_rotation_r	knee_angle_r	ankle_angle_r	subtalar_angle_r	hip_flexion_l	hip_adduction_l	hip_rotation_l	knee_angle_l	ankle_angle_l	subtalar_angle_l	lumbar_extension	lumbar_bending	lumbar_rotation
      1.84000000	      2.51027535	      2.60681156	    145.13457462	     -0.31655562	      0.94585998	      0.77813233	     12.45480942	     12.83431638	     -8.18387993	    -20.42932523	      9.61468401	     -9.98080253	     19.83839902	    -10.28817698	     -0.23497128	    -68.72007596	      4.32580143	      6.26016143	     -7.77028188	      4.49978270	      3.75902356
      1.85000000	      2.49298591	      2.52942679	    144.16245156	     -0.32099554	      0.94646297	      0.77120864	     11.51263082	     13.09733756	     -7.27176171	    -19.85366809	      9.76321744	    -10.02375615	     21.20781092	    -10.03435744	      0.28589948	    -68.55610979	      4.87985471	      5.99155034	     -7.76009691	      4.30501132	      4.20335456
      1.86000000	      2.47521770	      2.45181807	    143.19849756	     -0.32538709	      0.94697530	      0.76432843	     10.57333120	     13.33324358	     -6.35110511	    -19.28692108	      9.90702067	    -10.06591875	     22.51196436	     -9.78036874	      0.80130338	    -68.14958724	      5.38734795	      5.70583102	     -7.75735395	      4.11304869	      4.64332734
      1.87000000	      2.44658620	      2.37175197	    142.23746234	     -0.32976648	      0.94740917	      0.75747702	      9.62349931	     13.53197891	     -5.42734922	    -18.72121713	     10.04563294	    -10.12458485	     23.72812416	     -9.52229781	      1.29515279	    -67.49517147	      5.83509949	      5.40974268	     -7.76466175	      3.91623204	      5.07876237
      1.88000000	      2.42315214	      2.30837441	    141.29681287	     -0.33412031	      0.94772300	      0.75073418	      8.69418477	     13.71785685	     -4.48987667	    -18.20059974	     10.21562059	    -10.16843270	     24.87122658	     -9.25549616	      1.82829832	    -66.61842937	      6.25932527	      5.17664129	     -7.79053817	      3.75273936	      5.49002950
      1.89000000	      2.39569319	      2.24532257	    140.35709272	     -0.33846385	      0.94793670	      0.74402631	      7.77286920	     13.87470599	     -3.54345481	    -17.70460479	     10.39548140	    -10.20901849	     25.91926484	     -8.97756072	      2.36162105	    -65.50551318	      6.62119563	      5.00487514	     -7.82449337	      3.59272412	      5.90103376
      1.90000000	      2.36401145	      2.18153467	    139.41536131	     -0.34282395	      0.94805166	      0.73734991	      6.85668038	     13.99782999	     -2.59772338	    -17.22799262	     10.59202737	    -10.24635281	     26.86540553	     -8.68727176	      2.89320478	    -64.16235729	      6.92586035	      4.90972892	     -7.86042924	      3.43996994	      6.30445073
      1.91000000	      2.33466648	      2.12071291	    138.47895322	     -0.34717673	      0.94805016	      0.73070905	      5.96208241	     14.09645114	     -1.65486205	    -16.78929080	     10.81169382	    -10.27189346	     27.71691680	     -8.38955946	      3.44140952	    -62.60368872	      7.18510918	      4.91066229	     -7.89895531	      3.29715539	      6.70798775
      1.92000000	      2.31551687	      2.05684658	    137.54377053	     -0.35153142	      0.94792302	      0.72409898	      5.09868825	     14.17415051	     -0.70179492	    -16.38910466	     11.05883599	    -10.27835779	     28.47848634	     -8.08219229	      4.01124760	    -60.83810355	      7.41265189	      5.01655328	     -7.92526189	      3.17093156	      7.09417887
      1.93000000	      2.28141384	      2.00591066	    136.63479877	     -0.35594044	      0.94773499	      0.71752048	      4.22748751	     14.21738537	      0.18915066	    -16.00733090	     11.30466139	    -10.26265735	     29.11388162	     -7.75053736	      4.62656425	    -58.86546698	      7.64347878	      5.29647557	     -7.96781859	      3.05385213	      7.45648624
      1.94000000	      2.29714839	      1.93343702	    135.72772951	     -0.36031900	      0.94734776	      0.71095879	      3.44616110	     14.25930626	      1.09321396	    -15.68549929	     11.58815203	    -10.21260987	     29.71587235	     -7.43586567	      5.26841406	    -56.72029584	      7.84293742	      5.62435643	     -7.95059951	      2.96478862	      7.82304174
      1.95000000	      2.32725056	      1.86288948	    134.84588029	     -0.36471948	      0.94684876	      0.70443529	      2.70780285	     14.29062483	      1.97446511	    -15.41873998	     11.89319688	    -10.13316365	     30.23262229	     -7.11583593	      5.96564652	    -54.40141900	      8.02684847	      6.02921243	     -7.92157381	      2.90117410	      8.16515390
      1.96000000	      2.39658516	      1.76634756	    133.97927903	     -0.36913201	      0.94617442	      0.69791131	      2.04897518	     14.31374060	      2.83777575	    -15.20512722	     12.25666952	    -10.05981146	     30.71082692	     -6.80762472	      6.69199630	    -51.93180640	      8.13854152	      6.38433821	     -7.83313045	      2.85592207	      8.50926608
      1.97000000	      2.45087129	      1.68902365	    133.15805521	     -0.37360642	      0.94546493	      0.69140021	      1.38865587	     14.32064488	      3.65127628	    -15.02952117	     12.60292234	     -9.93694095	     31.05921642	     -6.48690624	      7.48846904	    -49.29918114	      8.29927571	      6.86688380	     -7.76913934	      2.82321348	      8.80711631
      1.98000000	      2.52334616	      1.62508657	    132.39627296	     -0.37817903	      0.94466554	      0.68493285	      0.76678410	     14.33193517	      4.38580541	    -14.90512093	     12.93292573	     -9.73680433	     31.32181454	     -6.16657280	      8.38010874	    -46.53565564	      8.51147459	      7.47418044	     -7.69844856	      2.83604972	      9.03812370
      1.99000000	      2.61608734	      1.52619176	    131.64184072	     -0.38275226	      0.94371854	      0.67844999	      0.23406156	     14.32664820	      5.11946464	    -14.86688126	     13.32058079	     -9.57685512	     31.52799756	     -5.85888290	      9.28669094	    -43.64945860	      8.67768671	      7.98126332	     -7.58343506	      2.84312549	      9.27944796
      2.00000000	      2.71657439	      1.42796422	    130.93115941	     -0.38738059	      0.94268276	      0.67194145	     -0.26658760	     14.32080155	      5.79902877	    -14.87013582	     13.70790720	     -9.39899282	     31.64371095	     -5.56578960	     10.25713203	    -40.65724698	      8.89774756	      8.57006243	     -7.45875804	      2.86161323	      9.49007587
      2.01000000	      2.80995317	      1.31696164	    130.22637945	     -0.39201228	      0.94155983	      0.66541369	     -0.70468375	     14.29737356	      6.46348917	    -14.97834945	     14.11325337	     -9.25359303	     31.66268286	     -5.29226665	     11.25425597	    -37.57615297	      9.14657889	      9.19024632	     -7.33503670	      2.87022508	      9.69616099
      2.02000000	      2.90252588	      1.19878788	    129.53542075	     -0.39666650	      0.94034437	      0.65884111	     -1.09769671	     14.26725480	      7.10115383	    -15.15767821	     14.52251621	     -9.13595865	     31.59571790	     -5.05100051	     12.28765597	    -34.44201066	      9.44790578	      9.88890346	     -7.20501155	      2.87641442	      9.90021181
      2.03000000	      2.98682996	      1.07694776	    128.84355622	     -0.40130633	      0.93904136	      0.65221796	     -1.44074195	     14.23200961	      7.72873702	    -15.43503262	     14.93971071	     -9.06006596	     31.44830320	     -4.85831348	     13.32083262	    -31.29622240	      9.78529444	     10.65494792	     -7.08342823	      2.87332052	     10.10795975
      2.04000000	      3.06811210	      0.95240756	    128.14510365	     -0.40591486	      0.93763903	      0.64552583	     -1.74150103	     14.19920190	      8.35534766	    -15.79275581	     15.36734266	     -9.02706974	     31.24626006	     -4.72809297	     14.33041957	    -28.19781846	     10.14568035	     11.47669567	     -6.96641560	      2.86310480	     10.33078569
      2.05000000	      3.14032557	      0.82714817	    127.42973804	     -0.41048004	      0.93614874	      0.63876405	     -2.00090863	     14.16645066	      8.98802570	    -16.24222004	     15.79820527	     -9.03683013	     31.00787817	     -4.66559067	     15.25733726	    -25.20732474	     10.50686362	     12.28581330	     -6.86294781	      2.84174239	     10.57188169
      2.06000000	      3.20875775	      0.69844841	    126.69370394	     -0.41499321	      0.93456558	      0.63191592	     -2.22348619	     14.13571345	      9.61655700	    -16.76555627	     16.24139131	     -9.07698662	     30.76965875	     -4.66970829	     16.04589184	    -22.39726728	     10.84126233	     13.02654852	     -6.76538969	      2.80632384	     10.85326738
      2.07000000	      3.26330062	      0.57127922	    125.92448423	     -0.41942906	      0.93291837	      0.62499400	     -2.40510057	     14.10496592	     10.25019093	    -17.39178155	     16.67853146	     -9.12939392	     30.54893995	     -4.72937578	     16.61464718	    -19.83881037	     11.14225674	     13.65390435	     -6.69082804	      2.75550964	     11.15291578
